<?xml version="1.0" encoding="UTF-8"?>
<svg id="Capa_2" data-name="Capa 2" xmlns="http://www.w3.org/2000/svg" viewBox="0 0 523.39 516.36">
  <defs>
    <style>
      .cls-1 {
        fill: #010101;
        animation-name: cuyo;
        position:relative;
         animation: cuyo 1s ease-in-out infinite alternate;
      }
      @keyframes cuyo {
  0% {
    transform: translateY(0); /* Posición inicial */
  }
  50% {
    transform: translateY(-80px); /* Salto hacia arriba */
  }
  100% {
    transform: translateY(0); /* Regresa a la posición inicial */
  }
}
  
    </style>
  </defs>
  <g id="Capa_1-2" data-name="Capa 1">
    <path class="cls-1" d="M0,246.01c0-.24,0-.47.14-.99,3.49-2.65,7.01-4.76,10.66-6.61,8.96-4.56,17.81-9.39,27.74-11.75,2-.48,2.84-2.03,3.1-3.9.39-2.81,1.19-5.5,2.16-8.16,3.44-9.48,7.98-18.47,12.39-27.52,1.22-2.5.68-3.37-1.92-3.18-5.07.38-10.14.9-15.22,1.11-6.73.28-13.42-.26-19.75-2.72-5.91-2.29-9.64-6.02-6.75-12.57.14-.31.11-.69.18-1.04,2.16-11.09,2.46-22.39,3.74-33.57,1.02-8.93,3.66-17.39,9.98-24.06,7.43-7.85,15.03-15.61,23.76-22.1,5.45-4.06,11.37-7.45,18.37-8.08,3.11-.28,5.4-1.61,7.31-3.85,1.74-2.04,3.05-4.34,4.21-6.73,2.58-5.36,6.55-9.37,11.83-12.2,5.1-2.73,10.66-4.57,15.53-7.75,2.69-1.76,5.56-3.43,6.96-6.41,2.16-4.61,4.99-8.73,8.28-12.6,2.53-2.98,5-6.01,8.23-8.28,2.39-1.68,3.64-1.26,4.57,1.49.71,2.1.89,4.29.91,6.51.06,4.72,1.07,9.26,2.9,13.61.37.88.71,1.97,1.86,2.05,1.2.08,1.57-1.05,2-1.88,2.06-3.91,4.08-7.84,6.1-11.77,5.01-9.75,11.42-18.5,19.22-26.25,1.39-1.38,2.84-2.69,4.6-3.6.93-.48,1.94-1.27,2.99-.58,1.19.79.71,2.11.47,3.17-.58,2.59-1.63,5.03-2.81,7.41-4.61,9.26-8.9,18.65-12.18,28.47-.37,1.12-.91,2.21-.56,3.68,1.69-1.33,3.26-2.48,4.73-3.75,18.03-15.52,38.43-27.15,60.45-36.17,5.12-2.1,10.44-3.58,15.63-5.44,2.16,0,4.32,0,6.85.15,1.71,1.35,1.5,2.6.51,3.89-1.58,2.05-3.47,3.8-5.47,5.42-7.37,6-15.2,11.43-22.29,17.77-4.28,3.83-8.38,7.82-12.52,12.46,2.02-.01,3.33-.59,4.63-1.08,16.53-6.25,33.7-8.34,51.28-7.54,7.21.33,14.15,1.96,20.36,5.8,2.44,1.51,2.35,2.65-.27,3.85-2.92,1.34-6.06,2.08-9.18,2.83-6.41,1.54-12.99,2.43-19.21,4.69-1.57.57-4.12.73-4,2.84.11,1.92,2.57,1.88,4.14,2.24,6.39,1.44,12.13,4.21,17.26,8.14,6.15,4.71,12.96,8.12,20.35,10.38,8.81,2.69,16.79,6.91,24.05,12.48,9.32,7.15,16.43,16.1,22.05,26.28,3.32,6.01,8.13,10.45,14.56,13.1,3.87,1.59,7.71,3.28,11.64,4.71,28.34,10.3,54.79,24.01,78.9,42.05,17.55,13.13,32.49,28.51,44.21,46.99,7.48,11.79,12.29,24.83,18.67,37.13,6.68,12.89,11.21,26.65,15.03,40.62,0,32.46,0,64.92-.07,97.8-5.36,13.43-11.42,26.06-18.24,38.37-6.65,12-15.28,21.83-27.65,28.25-5.23,2.71-10.46,5.48-16.45,6.03-3.02.27-5.75,1.09-8.39,2.44-3.72,1.91-6.45,4.96-9.42,7.76-7.62,7.2-16.6,11.79-27.24,12-10.37.21-20.69.22-30.9,2.42-3.1.67-4.47-.61-4.79-3.75-.07-.7-.06-1.41-.12-2.11-.2-2.69-.86-3.13-3.41-2.05-2.46,1.04-4.8,2.36-7.28,3.34-5.83,2.3-8.62.54-9.14-5.65-.3-3.49-.99-4.25-4.46-4.65-1.15-.13-2.32-.12-3.48-.04-6.67.48-13.36.84-20.01,1.57-4.95.54-9.95,1.09-14.59,3.16-2.48,1.1-4.6,2.68-4.83,5.52-.26,3.26-1.8,5.87-3.6,8.4-3.35,4.71-7.44,8.76-11.78,12.59-5.05,4.46-10.78,7.45-17.48,8.61-1.84.32-3.74.34-5.48,1.14-13.78,0-27.55,0-41.73-.12-2.59-.97-4.88-1.23-7.21-1.32-3.63-.14-5.32-1.35-6.18-4.72-1.01-3.96-1.22-8.03-.57-12.07,1.38-8.63,7-14.06,14.46-17.87,4.83-2.47,9.86-4.56,14.79-6.85,1.09-.51,2.24-.97,2.99-2.04-.96-.74-1.94-.8-2.92-.82-9.38-.2-18.77-.29-28.12.62-4.29.42-8.81.75-11.49,5.08-5.72,9.25-13.3,16.8-22.36,22.83-7.97,5.31-16.33,9.61-26.51,7.32-.77-.17-1.6-.04-2.41-.04-4.52.01-8.8,1.31-13.13,2.36-4.12,1-7.95,1.07-10.81-2.87-1.16-1.6-2.98-1.85-4.84-1.11-.99.4-1.94.89-2.93,1.31-4.51,1.89-7.87.69-9.37-3.87-2.91-8.83-1.84-17.06,4.86-24.06,4.1-4.29,9.3-7.1,14.3-10.17,3.88-2.38,4.83-1.89,1.04-5.86-.49-.51-.91-1.09-1.36-1.63-14.33-17.33-26.62-36.01-37.63-55.53-9.62-17.05-18.06-34.64-23.76-53.38-2.48-8.15-5.14-16.26-10.46-23.02-6.26-7.96-12.21-16.06-17.13-24.9-1.69-3.04-2.33-2.94-4.25.11-3.34,5.32-6.63,10.66-10.01,15.96-.56.88-1.08,2.1-2.7,1.79-.47-1.32.11-2.45.5-3.59,1.87-5.44,4.33-10.63,7.3-15.57,2.62-4.36,4.25-8.96,3.57-14.08-1.03-7.86-2.43-15.66-4.94-23.22-1.33-4-1.9-4.25-5.68-2.11-5.97,3.37-11.84,6.9-17.79,10.31-1.18.67-2.38,1.56-4.12,1.02.01-2.47,2.01-3.49,3.42-4.77,4.96-4.47,10.68-7.98,16-11.99,6.9-5.2,10.61-11.98,10.6-20.64,0-2.7-.59-3.23-3.16-2.47-2.22.66-4.41,1.43-6.61,2.16-7.87,2.62-15.32,6.33-23.27,8.76-1.61.49-3.2,1.19-4.96.71M248.41,491.28c.89-.41,1.77-.86,2.68-1.22,3.23-1.3,6.48-2.57,10.07-2.42,1.33.06,2.46.52,2.95,1.88.48,1.35-.1,2.4-1.04,3.32-1.04,1.01-2.33,1.61-3.65,2.16-4.69,1.94-7.74,5.54-10.16,9.78-.34.6-.74,1.26,0,2.02,1.08.2,1.98-.45,2.92-.9,4.67-2.25,8.92-5.19,13.31-7.91,4.23-2.63,8.5-5.24,13.48-6.32.91-.2,1.88-.28,2.49.49.73.92.23,1.9-.38,2.67-1.04,1.32-2.31,2.47-3.27,3.84-.96,1.38-2.79,3-1.35,4.65,1.59,1.83,3.69.56,5.33-.49,5.94-3.79,10.79-8.66,14.53-14.6.76-1.2,1.46-2.51,1.5-3.93.18-6.9,3.33-12.72,6.86-18.38,7.57-12.12,16.71-23.09,25.84-34.06,13.85-16.64,26.97-33.81,38.37-52.19,4.76-7.67,8.64-15.84,13.58-23.4.76-1.17,1.2-2.8,3-3.01.93,1.82,1.04,2.54.62,4.87-2.57,14.04-6.91,27.52-13.12,40.4-4.81,9.98-10.57,19.4-17.11,28.37-.56.77-1.47,1.51-1.15,2.75,1.55-.12,2.67-.88,3.83-1.51,6.06-3.25,11.71-7.13,17.33-11.03,6.86-4.77,13.37-10.05,20.77-14.04,1.08-.58,2.37-1.89,3.61-.61,1.21,1.24.26,2.71-.39,3.92-1.57,2.9-3.71,5.38-6.06,7.7-17.34,17.08-36.47,31.65-59.18,41.23-1.23.52-2.53,1-3.56,2.28,1.59.15,2.8-.13,3.99-.47,5.5-1.54,11.02-3,16.48-4.64,13.5-4.07,26.69-9.04,40.06-13.51,4.57-1.53,9.19-2.9,13.97-3.62.93-.14,2.15-.38,2.58.77.37.98-.57,1.62-1.28,2.1-1.62,1.09-3.26,2.17-4.97,3.12-3.66,2.04-7.38,4.01-11.07,6,.97.53,1.76.63,2.54.63,7.46.03,14.75,1.19,21.98,2.9,6.42,1.51,12.68,3.73,19.32,4.27,10.32.84,20.35-.14,29.77-4.74,1.03-.5,2.32-.84,2.87-2.59-13.08-.4-25.77,1.72-38.47,1.68-.28-1.31.39-1.86.86-2.46,3.24-4.21,6.56-8.37,9.76-12.62,2.92-3.89,5.93-7.75,8-12.18.58-1.24,1.63-2.66.51-3.94-1.24-1.42-2.83-.37-4.25.02-.77.21-1.51.54-2.24.87-3.9,1.75-7.78,3.55-11.7,5.26-1.1.48-2.26,1.08-4.03.18,4.58-9.2,12.21-16.54,16.86-26.4-2.95.23-4.82,1.23-6.66,2.22-6.67,3.57-13.3,7.23-19.97,10.81-.87.47-1.77,1.3-3.2.46,1.13-2.75,3.28-4.76,5.19-6.89,8.59-9.57,17.43-18.92,24.64-29.61,7.32-10.83,13.91-22.04,16.98-34.83,2.24-9.33,1.82-18.91,1.9-28.42.05-5.29.06-10.58.66-15.84.18-1.57.03-3.34,1.38-4.45.74-.01,1.1.31,1.29.69,8.35,16.9,12.7,35.04,16.94,53.45,1.12-6.15.72-12.06.02-17.9-2.8-23.17-9.09-45.4-18.97-66.63-10.07-21.64-24.34-40.39-40.64-57.75-6.92-7.37-13.86-14.74-20.41-22.43-1.09-1.28-2.54-2.44-2.68-4.37,4.95.12,33.89,22.25,50.56,38.99,15.08,15.13,28.07,32.01,40.94,48.97-15.11-34.07-37.18-63.01-66.89-85.84-22.46-17.27-47.13-30.99-74.14-40.97-.45,2.15-.19,3.69-.03,5.26.93,9.45,2.44,18.87,1.42,28.44-.44,4.17-2.09,7.33-5.83,9.5-6.12,3.55-12.84,5.22-19.74,6.4-4.79.82-9.62.5-14.44.59-2.5.05-2.9.68-1.94,2.88.85,1.94,1.73,3.87,2.64,5.79,11.82,24.99,19.47,50.9,17.83,78.85-.05.87.3,1.86-.84,2.95-1.3-4.65-2.5-8.95-3.69-13.26-11.57-41.57-34.44-75.55-69.83-101.09-5.52-3.98-10.53-8.45-14.83-13.69-1.68-2.06-3.28-4.2-4.07-6.78-.71-2.35-.16-3.15,2.27-3.16,1.51,0,3.03.12,4.54.31,8.43,1.05,16.62,3.37,24.98,4.75,1.48.24,3.02.78,4.95-.2-9.83-5.69-20.16-9.5-30.46-14.83,5.75-1.81,11.09-1.27,16.72-3-6.77-2.44-13.11-3.79-19.09-6.57,7.09-3.35,14.63-5.41,21.5-9.02-.62-1.17-1.38-1.14-2.07-1.09-2.85.2-5.69.51-8.54.67-4.98.28-9.97,1.07-14.96.18-1.31-.23-2.75-.46-3.27-1.93-.51-1.46.43-2.54,1.33-3.53,1.74-1.93,3.99-3.25,6.09-4.74,1.04-.74,2.32-1.26,2.98-2.79-2.25-.13-4.29-.12-6.3-.38-4.07-.51-4.94-2.26-2.99-5.76.3-.54.63-1.07.98-1.58,7.18-10.45,16.97-16.12,29.96-16.02,1.33.01,2.76.3,4.06-.44-.17-.36-.21-.56-.33-.66-12.02-10.39-25.76-15.47-41.88-13.23-.88.12-1.77.31-2.65.29-2.44-.05-3.16-1.24-2.12-3.47.79-1.7,2.15-3.02,3.27-4.5,1.13-1.5,2.83-2.63,3.36-4.68-1.46-.37-2.66,0-3.85.28-6.9,1.61-13.4,4.31-19.91,6.99-7.75,3.19-15.23,7-23.14,9.8-1.55.55-3.08,1.46-5.09.64.65-4.31,2.96-7.9,4.74-11.69,1.79-3.81,4.3-7.3,5.78-11.35-1.55-.46-2.05.33-2.64.78-7.46,5.67-14.21,12.07-20.16,19.28-3.66,4.44-7.03,9.14-11.52,12.85-2.68,2.21-4.28,1.95-6.06-.97-4.05-6.62-9.24-12.31-14.64-17.85-1.42-1.46-3.03-2.74-4.61-4.03-1.44-1.18-2.47-.63-3.08.93-1.02,2.63-.21,4.83,1.73,6.73,1.52,1.49,3.16,2.89,4.24,4.74,1.11,1.89.52,3.03-1.68,3.24-.87.08-1.79-.02-2.66-.2-4.27-.91-8.51-2-12.8-2.81-6.6-1.25-11.23.79-14.83,6.41-2.4,3.74-4.06,7.83-5.63,11.97-1.39,3.67-1.22,6.94,1.45,10.12,2.23,2.66,1.49,4.01-1.98,4.33-2,.19-4.06-.22-6.1.36.37,1.23,1.38,1.56,2.11,2.13,1.89,1.47,3.9,2.81,5.71,4.37,1.31,1.13,2.98,2.42,2.25,4.42-.72,1.99-2.78,1.87-4.56,2.04-6.1.59-12.11-.52-18.17-.79-.94-.04-1.97-.48-2.78,1,6.67,3.8,14.25,5.48,21.12,8.72,0,.25-.02.49-.03.74-6.12,1.91-12.24,3.83-18.35,5.74l.03.71c5.09.76,10.17,1.51,15.26,2.27.04.26.08.52.12.78-8.92,4.48-18.58,7.57-27.28,13.14,1.32.79,2.23.61,3.09.49,4.86-.66,9.67-1.67,14.51-2.44,9.18-1.45,15.54-6.15,19.93-14.28,4.84-8.98,11.55-16.74,18.44-24.29.45-.49.81-1.23,1.93-.96-.03,3.74-.96,7.4-1.56,11.08-2.29,14-8.42,26.47-15.84,38.43-7.66,12.35-16.62,23.81-24.91,35.72-6.2,8.9-11.63,18.18-15.3,28.4-1.49,4.15-.79,5.03,3.54,4.35,2.56-.4,5.11-.92,7.68-1.13,2.14-.17,4.24-1.12,6.59-.57-.68,1.28-1.87,1.25-2.81,1.6-5.58,2.1-11.39,3.67-16.45,6.98-1.84,1.2-3.42,2.55-3.67,4.92-.23,2.2-.67,4.35-1.38,6.45-.59,1.72.23,2.42,1.84,2.15,1.84-.32,3.66-.8,5.43-1.39,8.04-2.66,15.87-5.95,24.08-8.12,1.23-.32,2.47-.87,4-.02-1.58,2.12-3.81,2.91-5.78,3.98-9.24,5.04-18.94,9.14-28.47,13.58-1.21.57-2.54,1-2.55,2.69-.03,6.35-.31,12.71.68,19.01.53,3.41,1.57,3.75,4.29,1.45,4.55-3.84,8.94-7.85,13.17-12.04,5.04-5,10.07-10.01,15.61-14.49.95-.77,1.88-1.97,3.5-1.32.28,1.82-1.04,2.84-1.91,3.97-5.52,7.18-12.01,13.51-18.15,20.16-3.61,3.9-7.51,7.57-10.37,12.1-1.39,2.2-2.54,4.51-1.75,7.22,4.63,15.91,13.41,28.69,28.46,36.74,2.51,1.34,5.16,2.45,7.44,4.18,1.63,1.23,1.72,2.6.17,3.97-.93.82-1.88,1.65-2.92,2.31-3.18,2.01-3.89,4.68-2.89,8.22,2.54,9.03,5.91,17.72,10.15,26.11,2.51,4.96,5.75,9.27,9.87,13.04,11.86,10.86,24.17,21.21,36.78,31.2,7.1,5.63,14.17,11.31,21.87,16.16.77.48,1.64,1.49,2.61.66.83-.7.45-1.84.18-2.75-.78-2.62-1.72-5.19-2.48-7.81-.35-1.22-1.06-2.71.38-3.64,1.36-.88,2.62.16,3.65.89,3.35,2.37,6.29,5.21,9.16,8.12,7.99,8.09,16.12,16.02,25.59,22.47,2.87,1.95,5.91,3.66,9.56,4.89-.52-1.6-1.43-2.36-2.21-3.18-7.04-7.39-12.7-15.68-16.83-24.99-.86-1.95-1.54-3.95-1.82-6.06-.11-.8-.06-1.62.64-2.19.81-.65,1.58-.15,2.2.29,1.52,1.09,3.07,2.15,4.41,3.44,5.31,5.11,10.53,10.31,15.81,15.44.72.7,1.33,1.72,2.66,1.55,1.04-1.08.5-2.37.33-3.51-.31-2.12-.62-4.19.18-6.26.93-2.4,2.64-2.99,4.87-1.69,1.68.98,2.77,2.49,3.67,4.13,3.7,6.69,9.16,11.65,15.59,15.69,6.82,4.29,11.87,10.05,14.96,17.48,1.43,3.42,3,6.87,5.49,9.65,1.96,2.19,1.27,3.49-.66,4.94-4.15,3.11-8.74,5.48-13.36,7.8-6.06,3.03-12.12,6.06-17.65,9.98-1.4.99-2.98,1.88-3.92,4.5,6.73-1.64,11.55-5.72,17.49-8.33M142.6,423.58c-7.27-5.17-14.3-10.69-22.11-15.42-.37,1.54.45,2.22.99,2.98,6.98,9.84,15.13,18.75,22.85,28,5.06,6.06,9.65,12.44,11.7,20.28.8,3.06,2.5,5.7,6.37,5.83.96.03,2.03.32,2.29,1.49.27,1.23-.56,1.97-1.43,2.63-3.11,2.35-6.79,3.49-10.44,4.66-6.61,2.13-12.61,5.38-18.07,9.61-1.33,1.03-2.7,2.08-3.4,3.75,3.83-1.61,7.47-3.47,11.14-5.24,3.85-1.86,7.7-3.77,11.96-4.56,1.17-.22,2.6-.63,3.43.69.78,1.23.04,2.42-.61,3.45-1.56,2.48-3.58,4.6-5.58,6.75-1.82,1.96-3.87,3.79-4.94,6.49,1.69.41,2.76-.34,3.78-.96,2.51-1.52,4.99-3.1,7.41-4.75,4.84-3.31,9.25-7.24,14.58-9.84,1.35-.66,2.91-1.49,4.28-.39,1.38,1.11.9,2.75.44,4.2-.95,2.99-1.96,5.96-3.02,9.16.55-.16.82-.18,1.04-.3,11.59-6.27,19.72-15.84,26.1-26.99,1.88-3.29,1.6-3.57-1.97-5.29-1.44-.7-2.85-1.47-4.25-2.26-18.05-10.28-35.32-21.73-52.54-33.96M329.31,138.3c.11.14.21.3.34.41,1.22,1.03,2.16,3.38,3.92,2.44,1.51-.8.44-2.95.06-4.39-2.71-10.35-7.26-19.83-13.89-28.34-13.14-16.86-30.38-24.83-51.93-23.54-4.71.28-9.27,1.3-13.89,3.72.96.21,1.46.4,1.98.42,8.07.33,15.31,3.36,22.27,7.01,19.95,10.45,37.64,23.62,51.15,42.27M426.27,473.18c.73-.5,1.51-.95,2.19-1.52,1.71-1.45,4.49-2.58,3.87-5.2-.59-2.51-3.49-2.84-5.69-3.3-11.41-2.39-22.99-3.01-34.62-2.55-4.28.17-8.08,1.82-10.83,5.26.66-.07,1.22-.33,1.79-.57,4.12-1.73,8.27-3.33,12.89-3.06,3.64.21,4.28,1.3,2.41,4.47-1.12,1.9-2.4,3.72-3.48,5.64-.52.93-1.42,1.9-.58,3.17,1.66.4,2.98-.44,4.25-1.17,3.7-2.13,7.32-4.4,11.02-6.53,2.09-1.2,4.29-2.21,6.74-2.45,2.99-.29,4.38,1.11,4.03,4.06-.17,1.48-.59,2.94-.7,4.42-.12,1.65.79,2.34,2.36,1.66,1.38-.6,2.67-1.41,4.33-2.32Z"/>
    <path class="cls-1" d="M351.73,349.57c-8.25,19.12-18.31,36.95-32.82,51.92-13.38,13.8-28.56,25.29-46.54,32.83-2.97,1.25-6.08,2.04-9.24,2.64-.95.18-1.93.46-2.84-.31-.27-1.59,1.12-2.07,2.05-2.74,7.08-5.08,14.38-9.84,21.08-15.44,24.98-20.88,43.65-46.35,57.01-75.76,8.52-18.75,12.63-38.64,16.01-58.73,2.83-16.79,4.4-33.68,4.38-50.71,0-1.28.1-2.56.9-3.84,6.76,13.94,8.87,80.22-9.99,120.12Z"/>
    <path class="cls-1" d="M150.09,289.94c6.49,2.79,13.06,4.21,19.96,4.07,1.65-.03,3.82-.4,4.59,1.33.85,1.9-1.08,3.16-2.28,4.38-2.85,2.87-6.58,2.99-10.25,2.71-6.22-.47-12.43-1.14-18.64-1.83-8.17-.91-16.2.35-24.25,1.39-3.11.4-6.22.53-9.34.27-.91-.07-1.86-.23-2.25-1.16-.47-1.1.34-1.83,1.05-2.49,2.38-2.19,5.21-3.69,8.07-5.15,2.06-1.05,4.12-2.12,6.12-3.27,2.45-1.41,3.09-3.61,2.23-6.15-3.62-10.61-4.36-21.7-5.7-32.7-.44-3.58-.7-7.18-1.78-10.66-.66-2.13-1.92-3.3-4.34-2.94-3.02.45-5.62-.59-7.97-2.37-4.46-3.37-7.66-7.6-9.06-13.03-.2-.76-.38-1.55-.4-2.33-.05-2.42.07-4.93,2.38-6.38,2.29-1.44,4.65-.62,6.86.51,2.65,1.35,4.84,3.29,6.99,5.28,1.56,1.45,3.12,2.91,5.08,3.84,1.26.6,2.43.8,3.79.02,2.5-1.45,3.52-1.04,4.5,1.78,1.71,4.93,2.51,10.07,3.4,15.18,1.98,11.35,3.8,22.71,6.25,33.98,1.32,6.06,4.56,10.17,9.82,13.06,1.64.9,3.32,1.71,5.17,2.65Z"/>
    <path class="cls-1" d="M210.91,178.98c-3.6-.59-6.9-1.33-10.05-2.62-9.3-3.81-13.7-11.23-15.91-20.5-2.54-10.68,1.33-19.2,8.74-26.55,4.08-4.04,7.93-4.47,13.21-2.03,3.64,1.68,6.58,4.26,9,7.35,7.85,10.04,10.62,21.34,8.38,33.83-.08.43-.22.85-.34,1.28-1.84,6.33-5.29,10.12-13.03,9.23M210.22,149.9c-1.14-2.52-2.73-4.74-4.64-6.74-.77-.81-1.7-1.94-2.94-1.22-1.18.68-.82,1.97-.51,3.12.85,3.11,2.67,5.53,5.35,7.34.87.59,1.83,1.47,2.89.74,1.18-.81.18-1.92-.16-3.24Z"/>
    <path class="cls-1" d="M226.31,273.51c11.31,10.08,21.99,20.44,29.53,34.21-2.9.08-3.91-1.54-5.09-2.68-6.07-5.84-11.93-11.91-18.12-17.64-15.86-14.71-33.37-27.33-51.54-39.11-3.21-2.08-6.28-4.36-9.36-6.62-.96-.7-2.14-1.32-2.35-2.71,5.92-1.27,39.42,19.07,56.92,34.55Z"/>
    <path class="cls-1" d="M268.23,282.8c-6.79-3.6-12.61-8.3-18.87-12.37-15.9-10.34-32.6-19.3-49.51-27.89-6.75-3.43-13.51-6.83-19.86-10.95-1.01-.66-2.12-1.26-2.45-2.72,1.68-.91,3.1-.09,4.43.4,14.11,5.1,27.79,11.13,40.8,18.55,14.47,8.25,28.52,17.14,41.37,27.75,1.78,1.47,3.57,2.98,4.69,5.02.37.68,1.69,1.88-.6,2.2Z"/>
    <path class="cls-1" d="M209.24,216.73c19.81,3.21,37.98,10.41,55.72,18.87,1.28.61,2.46,1.43,3.66,2.19.78.5,1.46,1.15,1.14,2.17-.4,1.26-1.53,1.04-2.48.93-2.15-.24-4.17-.99-6.13-1.82-12.92-5.41-26.07-10.08-39.71-13.42-11.17-2.74-22.59-4.37-33.64-7.58-2.24-.65-4.68-1.02-6.52-2.9,1.22-1.69,2.88-1.59,4.42-1.53,7.87.27,15.61,1.57,23.54,3.09Z"/>
    <path class="cls-1" d="M199.2,280.68c-8.94-9.84-18.9-18.53-26.43-29.36-.3-.43-.44-.97.05-1.6,1.72-.28,2.93.93,4.11,1.85,12.44,9.7,24.07,20.22,33.88,32.59,6.12,7.71,12.08,15.52,16.9,24.11.96,1.7,1.75,3.47,2.23,5.36.18.71.17,1.47-.63,1.83-.66.3-1.24-.09-1.66-.55-.78-.85-1.6-1.68-2.22-2.64-7.38-11.56-16.87-21.41-26.24-31.59Z"/>
    <path class="cls-1" d="M130.15,227.53c1.66-8.4,6.81-13.67,14.56-16.28,5.45-1.84,9.5,1.75,8.74,7.39-.87,6.47-3.88,11.83-9.29,15.71-2.77,1.99-5.89,3.32-9.22,1.68-3.32-1.63-4.61-4.71-4.8-8.5Z"/>
  </g>
</svg>