<?xml version="1.0" encoding="UTF-8"?>
<svg id="Capa_2" data-name="Capa 2" xmlns="http://www.w3.org/2000/svg" viewBox="0 0 553.5 42.38">
  <defs>
    <style>
      .cls-1 {
         fill: #1d1d1b;
      animation: texto 1s ease-in-out infinite alternate;
      transform-origin: center bottom;
    }

    @keyframes texto {
      0% {
        transform: scaleY(0.7);
      }
      50% {
        transform: scaleY(1);
      }
      100% {
        transform: scaleY(0.7);
      }
    }
    </style>
  </defs>
  <g id="Capa_1-2" data-name="Capa 1">
    <path class="cls-1" d="M19.29,0l5.64,37.95h-10.08l-.53-6.82h-3.53l-.59,6.82H0L5.03,0h14.26ZM14.07,24.4c-.5-4.3-1-9.61-1.5-15.94-1.01,7.27-1.64,12.58-1.89,15.94h3.4-.01Z"/>
    <path class="cls-1" d="M48.01,6.84v31.1h-9.63l.16-2.58c-.66,1.05-1.46,1.84-2.43,2.36-.96.53-2.07.79-3.32.79-1.42,0-2.6-.25-3.54-.75s-1.63-1.16-2.07-1.99-.72-1.69-.83-2.59-.16-2.68-.16-5.36V6.84h9.47v21.16c0,2.42.07,3.86.22,4.31s.55.68,1.21.68c.7,0,1.12-.23,1.25-.7s.2-1.98.2-4.52V6.84h9.47Z"/>
    <path class="cls-1" d="M70.18,6.84l-3.77,14.86,4.57,16.24h-9.21c-.91-4.1-1.61-7.63-2.08-10.59-.63,3.7-1.32,7.23-2.06,10.59h-7.92l4.08-16.24-4.08-14.86h7.92c1.28,6.36,1.96,9.97,2.06,10.83.91-5.31,1.61-8.92,2.08-10.83,0,0,8.41,0,8.41,0Z"/>
    <path class="cls-1" d="M81.97,0v4.95h-9.75V0h9.75ZM81.97,6.84v31.1h-9.75V6.84h9.75Z"/>
    <path class="cls-1" d="M95.12,0v37.95h-9.75V0h9.75Z"/>
    <path class="cls-1" d="M108.27,0v4.95h-9.75V0h9.75ZM108.27,6.84v31.1h-9.75V6.84h9.75Z"/>
    <path class="cls-1" d="M133.09,17.77v7.62c0,2.8-.14,4.85-.42,6.15-.28,1.3-.88,2.52-1.8,3.66s-2.11,1.97-3.55,2.51-3.11.81-4.98.81c-2.09,0-3.87-.23-5.32-.69s-2.58-1.16-3.39-2.09-1.38-2.05-1.72-3.38-.52-3.3-.52-5.94v-7.97c0-2.89.31-5.15.94-6.77s1.75-2.93,3.38-3.91,3.7-1.48,6.23-1.48c2.12,0,3.95.32,5.47.95,1.52.63,2.7,1.46,3.53,2.47s1.39,2.06,1.7,3.14.46,2.72.46,4.92h-.01ZM123.62,15.42c0-1.59-.09-2.6-.26-3.01s-.54-.62-1.1-.62-.94.21-1.12.62-.28,1.42-.28,3.01v14.04c0,1.47.09,2.43.28,2.87s.55.67,1.1.67.93-.2,1.11-.61.27-1.28.27-2.62v-14.34h0Z"/>
    <path class="cls-1" d="M154.02,6.84l-.16,2.96c.73-1.17,1.61-2.05,2.62-2.64s2.17-.88,3.47-.88c2.53,0,4.52,1.17,5.98,3.52.8-1.17,1.7-2.05,2.7-2.64s2.11-.88,3.33-.88c1.61,0,2.94.39,4,1.17,1.06.78,1.73,1.74,2.03,2.87s.45,2.97.45,5.52v22.1h-9.19v-20.27c0-2.66-.09-4.3-.27-4.93s-.6-.95-1.25-.95-1.11.31-1.3.94-.29,2.27-.29,4.95v20.27h-9.19v-19.76c0-3.05-.07-4.88-.22-5.48s-.56-.91-1.23-.91c-.42,0-.78.16-1.08.48s-.46.71-.49,1.17-.05,1.44-.05,2.94v21.56h-9.19V6.84h9.35-.02Z"/>
    <path class="cls-1" d="M203.12,22.95h-12.26v6.73c0,1.41.1,2.31.3,2.72.2.41.59.61,1.17.61.72,0,1.2-.27,1.44-.81s.36-1.58.36-3.13v-4.1h8.98v2.3c0,1.92-.12,3.4-.36,4.43s-.81,2.13-1.7,3.3-2.02,2.05-3.39,2.64-3.08.88-5.14.88-3.77-.29-5.3-.87-2.72-1.37-3.57-2.38-1.44-2.12-1.77-3.33-.49-2.97-.49-5.29v-9.07c0-2.72.37-4.86,1.1-6.43s1.94-2.77,3.61-3.61,3.59-1.25,5.77-1.25c2.66,0,4.85.5,6.57,1.51s2.94,2.34,3.63,4.01,1.04,4,1.04,7.02v4.12h0ZM193.63,17.88v-2.27c0-1.61-.09-2.65-.26-3.12s-.52-.7-1.05-.7c-.66,0-1.06.2-1.22.6s-.23,1.47-.23,3.22v2.27h2.77-.01Z"/>
    <path class="cls-1" d="M236.12,22.95h-12.26v6.73c0,1.41.1,2.31.3,2.72.2.41.59.61,1.17.61.72,0,1.2-.27,1.44-.81s.36-1.58.36-3.13v-4.1h8.98v2.3c0,1.92-.12,3.4-.36,4.43s-.81,2.13-1.7,3.3-2.02,2.05-3.39,2.64-3.08.88-5.14.88-3.77-.29-5.3-.87-2.72-1.37-3.57-2.38-1.44-2.12-1.77-3.33-.49-2.97-.49-5.29v-9.07c0-2.72.37-4.86,1.1-6.43s1.94-2.77,3.61-3.61,3.59-1.25,5.77-1.25c2.66,0,4.85.5,6.57,1.51s2.94,2.34,3.63,4.01,1.04,4,1.04,7.02v4.12h0ZM226.63,17.88v-2.27c0-1.61-.09-2.65-.26-3.12s-.52-.7-1.05-.7c-.66,0-1.06.2-1.22.6s-.23,1.47-.23,3.22v2.27h2.77-.01Z"/>
    <path class="cls-1" d="M258.55,16.78h-8.39v-1.69c0-1.44-.08-2.35-.25-2.73s-.57-.57-1.23-.57c-.53,0-.93.18-1.2.53s-.4.88-.4,1.58c0,.95.07,1.65.2,2.1.13.45.53.93,1.2,1.46s2.03,1.3,4.09,2.32c2.75,1.34,4.55,2.61,5.41,3.8s1.29,2.91,1.29,5.18c0,2.53-.33,4.44-.98,5.73s-1.75,2.28-3.29,2.98-3.39,1.04-5.57,1.04c-2.41,0-4.46-.38-6.18-1.12s-2.89-1.77-3.53-3.05-.96-3.22-.96-5.81v-1.5h8.39v1.97c0,1.67.11,2.76.32,3.26.21.5.63.75,1.25.75.67,0,1.14-.17,1.41-.5s.4-1.04.4-2.12c0-1.48-.17-2.41-.52-2.79-.36-.38-2.2-1.48-5.51-3.33-2.78-1.56-4.48-2.98-5.09-4.25s-.91-2.79-.91-4.54c0-2.48.33-4.32.98-5.5s1.77-2.09,3.34-2.73,3.39-.96,5.47-.96,3.82.26,5.26.79,2.55,1.21,3.33,2.07,1.24,1.66,1.41,2.39.25,1.88.25,3.45v1.8h.01Z"/>
    <path class="cls-1" d="M271.79,2.7v4.9h2.55v4.92h-2.55v16.64c0,2.05.11,3.19.32,3.42s1.09.35,2.64.35v5.02h-3.82c-2.16,0-3.7-.09-4.62-.27s-1.73-.59-2.44-1.24-1.14-1.39-1.31-2.23-.26-2.8-.26-5.89v-15.8h-2.04v-4.92h2.04V2.7h9.49Z"/>
    <path class="cls-1" d="M284.89,18.89h-8.88v-2.09c0-2.41.28-4.26.83-5.57s1.67-2.46,3.34-3.46,3.84-1.5,6.52-1.5c3.2,0,5.62.57,7.24,1.7,1.62,1.13,2.6,2.52,2.93,4.17s.49,5.04.49,10.18v15.61h-9.21v-2.77c-.58,1.11-1.32,1.95-2.24,2.5-.91.56-2,.83-3.27.83-1.66,0-3.18-.46-4.56-1.39s-2.07-2.96-2.07-6.11v-2.55c0-2.33.37-3.91,1.1-4.76s2.55-1.83,5.46-2.95c3.11-1.22,4.77-2.04,4.99-2.46s.33-1.28.33-2.58c0-1.62-.12-2.68-.36-3.18s-.64-.74-1.21-.74c-.64,0-1.04.21-1.2.62s-.23,1.49-.23,3.22v3.28ZM287.89,23.16c-1.52,1.11-2.39,2.04-2.64,2.79s-.36,1.83-.36,3.23c0,1.61.11,2.65.32,3.12.21.47.63.7,1.25.7s.98-.18,1.16-.55.27-1.33.27-2.89v-6.4Z"/>
    <path class="cls-1" d="M310.25,6.84l-.16,2.87c.69-1.14,1.53-2,2.52-2.57.99-.57,2.14-.86,3.43-.86,1.62,0,2.95.38,3.98,1.15,1.03.77,1.7,1.73,1.99,2.89s.45,3.11.45,5.82v21.8h-9.47v-21.54c0-2.14-.07-3.45-.21-3.91s-.53-.7-1.17-.7-1.09.27-1.27.81-.26,1.98-.26,4.32v21.02h-9.47V6.84h9.64Z"/>
    <path class="cls-1" d="M342.64,18.89h-8.88v-2.09c0-2.41.28-4.26.83-5.57s1.67-2.46,3.34-3.46,3.84-1.5,6.52-1.5c3.2,0,5.62.57,7.24,1.7,1.62,1.13,2.6,2.52,2.93,4.17s.49,5.04.49,10.18v15.61h-9.21v-2.77c-.58,1.11-1.32,1.95-2.24,2.5-.91.56-2,.83-3.27.83-1.66,0-3.18-.46-4.56-1.39s-2.07-2.96-2.07-6.11v-2.55c0-2.33.37-3.91,1.1-4.76s2.55-1.83,5.46-2.95c3.11-1.22,4.77-2.04,4.99-2.46s.33-1.28.33-2.58c0-1.62-.12-2.68-.36-3.18s-.64-.74-1.21-.74c-.64,0-1.04.21-1.2.62s-.23,1.49-.23,3.22v3.28ZM345.64,23.16c-1.52,1.11-2.39,2.04-2.64,2.79s-.36,1.83-.36,3.23c0,1.61.11,2.65.32,3.12.21.47.63.7,1.25.7s.98-.18,1.16-.55.27-1.33.27-2.89v-6.4Z"/>
    <path class="cls-1" d="M368,6.84l-.16,2.75c.84-1.11,1.77-1.94,2.79-2.49,1.02-.55,2.12-.82,3.33-.82,1.47,0,2.74.39,3.81,1.18s1.74,1.7,2,2.73.4,2.78.4,5.25v13.1c0,2.83-.17,4.84-.5,6.04s-1.02,2.15-2.06,2.86-2.29,1.07-3.76,1.07c-1.17,0-2.26-.27-3.26-.82s-1.91-1.36-2.74-2.44v7.13h-9.47V6.84h9.63,0ZM370.7,15.89c0-1.92-.07-3.09-.21-3.49s-.53-.61-1.17-.61-1.03.23-1.21.7-.27,1.6-.27,3.4v12.89c0,1.88.09,3.05.28,3.52s.59.7,1.22.7.99-.21,1.14-.64.22-1.47.22-3.13v-13.34h0Z"/>
    <path class="cls-1" d="M393.03,0v37.95h-9.75V0h9.75Z"/>
    <path class="cls-1" d="M404.89,18.89h-8.88v-2.09c0-2.41.28-4.26.83-5.57s1.67-2.46,3.34-3.46,3.84-1.5,6.52-1.5c3.2,0,5.62.57,7.24,1.7,1.62,1.13,2.6,2.52,2.93,4.17s.49,5.04.49,10.18v15.61h-9.21v-2.77c-.58,1.11-1.32,1.95-2.24,2.5-.91.56-2,.83-3.27.83-1.66,0-3.18-.46-4.56-1.39s-2.07-2.96-2.07-6.11v-2.55c0-2.33.37-3.91,1.1-4.76s2.55-1.83,5.46-2.95c3.11-1.22,4.77-2.04,4.99-2.46s.33-1.28.33-2.58c0-1.62-.12-2.68-.36-3.18s-.64-.74-1.21-.74c-.64,0-1.04.21-1.2.62s-.23,1.49-.23,3.22v3.28ZM407.89,23.16c-1.52,1.11-2.39,2.04-2.64,2.79s-.36,1.83-.36,3.23c0,1.61.11,2.65.32,3.12.21.47.63.7,1.25.7s.98-.18,1.16-.55.27-1.33.27-2.89v-6.4Z"/>
    <path class="cls-1" d="M439.96,16.78h-8.39v-1.69c0-1.44-.08-2.35-.25-2.73s-.57-.57-1.23-.57c-.53,0-.93.18-1.2.53s-.4.88-.4,1.58c0,.95.07,1.65.2,2.1.13.45.53.93,1.2,1.46s2.03,1.3,4.09,2.32c2.75,1.34,4.55,2.61,5.41,3.8s1.29,2.91,1.29,5.18c0,2.53-.33,4.44-.98,5.73s-1.75,2.28-3.29,2.98-3.39,1.04-5.57,1.04c-2.41,0-4.46-.38-6.18-1.12s-2.89-1.77-3.53-3.05-.96-3.22-.96-5.81v-1.5h8.39v1.97c0,1.67.11,2.76.32,3.26.21.5.63.75,1.25.75.67,0,1.14-.17,1.41-.5s.4-1.04.4-2.12c0-1.48-.17-2.41-.52-2.79-.36-.38-2.2-1.48-5.51-3.33-2.78-1.56-4.48-2.98-5.09-4.25s-.91-2.79-.91-4.54c0-2.48.33-4.32.98-5.5s1.77-2.09,3.34-2.73,3.39-.96,5.47-.96,3.82.26,5.26.79,2.55,1.21,3.33,2.07,1.24,1.66,1.41,2.39.25,1.88.25,3.45v1.8h0Z"/>
    <path class="cls-1" d="M453.2,2.7v4.9h2.55v4.92h-2.55v16.64c0,2.05.11,3.19.32,3.42s1.09.35,2.64.35v5.02h-3.82c-2.16,0-3.7-.09-4.62-.27s-1.73-.59-2.44-1.24-1.14-1.39-1.31-2.23-.26-2.8-.26-5.89v-15.8h-2.04v-4.92h2.04V2.7h9.49Z"/>
    <path class="cls-1" d="M466.3,18.89h-8.88v-2.09c0-2.41.28-4.26.83-5.57s1.67-2.46,3.34-3.46,3.84-1.5,6.52-1.5c3.2,0,5.62.57,7.24,1.7,1.62,1.13,2.6,2.52,2.93,4.17s.49,5.04.49,10.18v15.61h-9.21v-2.77c-.58,1.11-1.32,1.95-2.24,2.5-.91.56-2,.83-3.27.83-1.66,0-3.18-.46-4.56-1.39s-2.07-2.96-2.07-6.11v-2.55c0-2.33.37-3.91,1.1-4.76s2.55-1.83,5.46-2.95c3.11-1.22,4.77-2.04,4.99-2.46s.33-1.28.33-2.58c0-1.62-.12-2.68-.36-3.18s-.64-.74-1.21-.74c-.64,0-1.04.21-1.2.62s-.23,1.49-.23,3.22v3.28ZM469.3,23.16c-1.52,1.11-2.39,2.04-2.64,2.79s-.36,1.83-.36,3.23c0,1.61.11,2.65.32,3.12.21.47.63.7,1.25.7s.98-.18,1.16-.55.27-1.33.27-2.89v-6.4Z"/>
    <path class="cls-1" d="M491.66,6.84l-.16,2.87c.69-1.14,1.53-2,2.52-2.57.99-.57,2.14-.86,3.43-.86,1.62,0,2.95.38,3.98,1.15,1.03.77,1.7,1.73,1.99,2.89s.45,3.11.45,5.82v21.8h-9.47v-21.54c0-2.14-.07-3.45-.21-3.91s-.53-.7-1.17-.7-1.09.27-1.27.81-.26,1.98-.26,4.32v21.02h-9.47V6.84h9.64Z"/>
    <path class="cls-1" d="M528.67,0v37.95h-9.47v-2.26c-.91.94-1.86,1.64-2.86,2.11s-2.05.71-3.14.71c-1.47,0-2.74-.39-3.82-1.16s-1.77-1.67-2.07-2.68-.46-2.67-.46-4.97v-14.55c0-2.39.15-4.09.46-5.09s1-1.88,2.1-2.64,2.4-1.14,3.91-1.14c1.17,0,2.25.21,3.22.63s1.86,1.06,2.66,1.9V0h9.47ZM519.2,14.67c0-1.14-.1-1.91-.29-2.3s-.58-.59-1.16-.59-.94.18-1.14.53-.29,1.14-.29,2.36v15.23c0,1.27.09,2.1.28,2.5.19.4.55.6,1.08.6.61,0,1.02-.22,1.22-.67s.3-1.54.3-3.27v-14.39h0Z"/>
    <path class="cls-1" d="M553.49,17.77v7.62c0,2.8-.14,4.85-.42,6.15-.28,1.3-.88,2.52-1.8,3.66s-2.11,1.97-3.55,2.51-3.11.81-4.98.81c-2.09,0-3.87-.23-5.32-.69s-2.58-1.16-3.39-2.09-1.38-2.05-1.72-3.38-.52-3.3-.52-5.94v-7.97c0-2.89.31-5.15.94-6.77s1.75-2.93,3.38-3.91,3.7-1.48,6.23-1.48c2.12,0,3.95.32,5.47.95s2.7,1.46,3.53,2.47,1.39,2.06,1.7,3.14.46,2.72.46,4.92h-.01ZM544.02,15.42c0-1.59-.09-2.6-.26-3.01s-.54-.62-1.1-.62-.94.21-1.12.62-.28,1.42-.28,3.01v14.04c0,1.47.09,2.43.28,2.87s.55.67,1.1.67.93-.2,1.11-.61.27-1.28.27-2.62v-14.34h0Z"/>
  </g>
</svg>